<?xml version="1.0" encoding="utf-8"?>
<!-- Generator: Adobe Illustrator 25.4.1, SVG Export Plug-In . SVG Version: 6.00 Build 0)  -->
<svg version="1.1" id="Layer_1" xmlns="http://www.w3.org/2000/svg" xmlns:xlink="http://www.w3.org/1999/xlink" x="0px" y="0px"
	 viewBox="0 0 164.3 10.1" style="enable-background:new 0 0 164.3 10.1;" xml:space="preserve">
<style type="text/css">
	.st0{fill:#575756;}
</style>
<g id="BACGROUND">
</g>
<g id="OBJECTS">
	<g>
		<g>
			<path class="st0" d="M82.1,5.4L0,4.9L82.1,5.4z"/>
			<path class="st0" d="M82.1,5.9c-6.8,0.8-13.7,0.7-20.5,0.3l-5.1-0.3c-1.7-0.1-3.4-0.3-5.1-0.3C48,5.5,44.6,5.5,41.1,5.5
				c-3.4,0-6.8,0.1-10.3,0.1c-3.4,0.1-6.8,0-10.3,0.7c-3.4,0.2-6.8-0.1-10.3-0.4C6.8,5.6,3.4,5.3,0,5.4v-1C3.4,4.5,6.9,4.3,10.3,4
				c3.4-0.2,6.8-0.5,10.3-0.3c3.4,0.8,6.8,0.6,10.3,0.8c3.4,0.1,6.8,0.2,10.3,0.2c3.4,0,6.8,0.1,10.3,0.1c1.7,0,3.4-0.2,5.1-0.3
				l5.1-0.2C68.4,4,75.3,4,82.1,4.9V5.9z"/>
		</g>
		<g>
			<path class="st0" d="M82.5,5.4l82.1-0.5L82.5,5.4z"/>
			<path class="st0" d="M82.1,5.9c6.8,0.8,13.7,0.7,20.5,0.3l5.1-0.3c1.7-0.1,3.4-0.3,5.1-0.3c3.4-0.1,6.8-0.1,10.3-0.1
				c3.4,0,6.8,0.1,10.3,0.1c3.4,0.1,6.8,0,10.3,0.7c3.4,0.2,6.8-0.1,10.3-0.4c3.4-0.3,6.8-0.5,10.3-0.5v-1
				c-3.4,0.1-6.8-0.1-10.3-0.4c-3.4-0.2-6.8-0.5-10.3-0.3c-3.4,0.8-6.8,0.6-10.3,0.8c-3.4,0.1-6.8,0.2-10.3,0.2
				c-3.4,0-6.8,0.1-10.3,0.1c-1.7,0-3.4-0.2-5.1-0.3l-5.1-0.2C95.8,4,89,4,82.1,4.9V5.9z"/>
		</g>
	</g>
</g>
</svg>
