<?xml version="1.0" encoding="utf-8"?>
<!-- Generator: Adobe Illustrator 25.4.1, SVG Export Plug-In . SVG Version: 6.00 Build 0)  -->
<svg version="1.1" id="Layer_1" xmlns="http://www.w3.org/2000/svg" xmlns:xlink="http://www.w3.org/1999/xlink" x="0px" y="0px"
	 viewBox="0 0 293.4 10.1" style="enable-background:new 0 0 293.4 10.1;" xml:space="preserve">
<style type="text/css">
	.st0{fill:#C6858C;}
</style>
<g id="BACGROUND">
</g>
<g id="OBJECTS">
	<g>
		<g>
			<path class="st0" d="M152.4,5.2c-0.5,0.9-1.4,1.5-2.5,1.6c-0.5,0.1-1,0-1.5-0.2s-0.9-0.5-1.2-1c-0.6-0.9-0.7-2-0.3-3
				c0.2-0.5,0.5-1,0.9-1.3s0.8-0.6,1.3-0.8s1-0.3,1.5-0.4c0.3,0,0.5-0.1,0.8-0.1s0.5,0,0.7,0c1,0.1,1.9,0.2,2.9,0.4
				c1.9,0.4,3.7,1.1,5.5,1.8s3.5,1.5,5.3,2.2c1.7,0.7,3.5,1.4,5.3,2c3.6,1.1,7.3,1.9,11.1,2.3c3.7,0.4,7.5,0.4,11.1-0.6
				c0.9-0.3,1.8-0.6,2.6-1s1.6-0.9,2.5-1.4c1.6-1,3.3-2,5.2-2.6c0.9-0.3,1.9-0.5,3-0.5c1,0,2,0.2,3,0.7c0.5,0.2,0.9,0.5,1.3,0.9
				c0.4,0.4,0.7,0.9,0.8,1.4c0.3,1,0,2.2-0.6,3c-0.7,0.8-1.8,1.2-2.9,1.1c-1-0.1-2.1-0.8-2.5-1.8c-0.1-0.3-0.1-0.5-0.1-0.8
				s0.1-0.6,0.2-0.8c0.3-0.5,0.8-0.8,1.4-0.9c0.3,0,0.6,0.1,0.8,0.2c0.2,0.2,0.4,0.4,0.5,0.7c0.1,0.3,0.1,0.6,0,0.8
				c-0.1,0.3-0.3,0.5-0.6,0.6l-0.1-0.3c0.3-0.1,0.5-0.6,0.3-1c-0.1-0.2-0.2-0.4-0.3-0.5s-0.3-0.1-0.5-0.1c-0.4,0-0.7,0.3-0.9,0.7
				c-0.2,0.3-0.2,0.8,0,1.1c0.2,0.4,0.4,0.7,0.8,0.9c0.3,0.2,0.8,0.4,1.2,0.4c0.8,0.1,1.7-0.3,2.2-0.9s0.7-1.6,0.5-2.4
				s-0.9-1.4-1.7-1.8c-0.8-0.4-1.7-0.6-2.6-0.6c-0.9,0-1.8,0.2-2.7,0.5c-1.7,0.6-3.3,1.6-5,2.6c-0.8,0.5-1.7,1-2.5,1.4
				c-0.9,0.4-1.8,0.8-2.7,1.1c-3.8,1.1-7.7,1.1-11.5,0.7c-3.8-0.4-7.6-1.2-11.3-2.4c-1.8-0.6-3.6-1.3-5.4-2
				c-1.8-0.8-3.5-1.6-5.2-2.3S157,1.4,155.2,1c-0.9-0.2-1.8-0.4-2.8-0.5c-0.5-0.1-0.9-0.1-1.3,0c-0.4,0.1-0.9,0.2-1.3,0.3
				c-0.4,0.2-0.8,0.4-1.2,0.6c-0.3,0.2-0.6,0.6-0.7,1c-0.3,0.8-0.3,1.7,0.2,2.5c0.4,0.7,1.3,1.1,2.2,1s1.7-0.5,2.2-1.3L152.4,5.2z"
				/>
			<path class="st0" d="M140.8,5.2c0.5,0.9,1.4,1.5,2.5,1.6c0.5,0.1,1,0,1.5-0.2s0.9-0.5,1.2-1c0.6-0.9,0.7-2,0.3-3
				c-0.2-0.5-0.5-1-0.9-1.3s-0.8-0.6-1.3-0.8s-1-0.3-1.5-0.4c-0.3,0-0.5-0.1-0.8-0.1s-0.5,0-0.7,0c-1,0.1-1.9,0.2-2.9,0.4
				c-1.9,0.4-3.7,1.1-5.5,1.8s-3.5,1.5-5.3,2.2c-1.7,0.7-3.5,1.4-5.3,2c-3.6,1.1-7.3,1.9-11.1,2.3c-3.7,0.4-7.5,0.4-11.1-0.6
				c-0.9-0.3-1.8-0.6-2.6-1c-0.8-0.4-1.6-0.9-2.5-1.4c-1.6-1-3.3-2-5.2-2.6c-0.9-0.3-1.9-0.5-3-0.5c-1,0-2,0.2-3,0.7
				c-0.1,0.3-0.6,0.7-0.9,1c-0.4,0.4-0.7,0.9-0.8,1.4c-0.3,1,0,2.2,0.6,3c0.7,0.8,1.8,1.2,2.9,1.1c1-0.1,2.1-0.8,2.5-1.8
				c0-0.1,0.1-0.4,0.1-0.7c0-0.3-0.1-0.6-0.2-0.8C87.4,6,87,5.7,86.4,5.6c-0.3,0-0.6,0.1-0.8,0.2c-0.2,0.2-0.4,0.4-0.5,0.7
				c-0.1,0.3-0.1,0.6,0,0.8c0.1,0.3,0.3,0.5,0.6,0.6l0.1-0.3c-0.3-0.1-0.5-0.6-0.3-1c0.1-0.2,0.2-0.4,0.3-0.5C85.9,6,86.1,6,86.3,6
				c0.4,0,0.7,0.3,0.9,0.7c0.2,0.3,0.2,0.8,0,1.1c-0.2,0.4-0.4,0.7-0.8,0.9c-0.3,0.2-0.8,0.4-1.2,0.4c-0.8,0.1-1.7-0.3-2.2-0.9
				c-0.5-0.6-0.7-1.6-0.5-2.4s0.9-1.4,1.7-1.8c0.8-0.4,1.7-0.6,2.6-0.6s1.8,0.2,2.7,0.5c1.7,0.6,3.3,1.6,5,2.6
				c0.8,0.5,1.7,1,2.5,1.4c0.9,0.4,1.8,0.8,2.7,1.1c3.8,1.1,7.7,1.1,11.5,0.7c3.8-0.4,7.6-1.2,11.3-2.4c1.8-0.6,3.6-1.3,5.4-2
				c1.8-0.8,3.5-1.6,5.2-2.3s3.5-1.4,5.3-1.8c0.9-0.2,1.8-0.4,2.8-0.5c0.5-0.1,0.9-0.1,1.3,0c0.4,0.1,0.9,0.2,1.3,0.3
				c0.4,0.2,0.8,0.4,1.2,0.6c0.3,0.2,0.6,0.6,0.7,1c0.3,0.8,0.3,1.7-0.2,2.5c-0.4,0.7-1.3,1.1-2.2,1s-1.7-0.5-2.2-1.3L140.8,5.2z"/>
		</g>
		<g>
			<path class="st0" d="M142.3,5c0.3-0.7,1.1-1.1,1.8-1.2c0.4,0,0.8,0,1.1,0.2c0.4,0.1,0.7,0.4,0.9,0.7c0.4,0.7,0.5,1.5,0.3,2.3
				c-0.1,0.4-0.4,0.7-0.7,1c-0.3,0.2-0.6,0.4-1,0.6c-0.3,0.1-0.7,0.3-1.1,0.3c-0.2,0-0.4,0-0.6,0.1c-0.2,0-0.4,0-0.6,0
				c-0.7,0-1.4-0.2-2.2-0.3c-1.4-0.3-2.8-0.8-4.1-1.3s-2.6-1.1-3.9-1.7c-1.3-0.6-2.6-1.1-4-1.5c-2.7-0.8-5.5-1.4-8.3-1.7
				s-5.6-0.3-8.3,0.5c-0.7,0.2-1.3,0.4-1.9,0.7s-1.2,0.6-1.8,1c-1.2,0.7-2.5,1.5-3.9,1.9c-0.7,0.2-1.5,0.3-2.2,0.3
				c-0.8,0-1.5-0.2-2.2-0.5c-0.3-0.2-0.7-0.4-0.9-0.7c-0.3-0.3-0.5-0.7-0.6-1.1c-0.2-0.8,0-1.6,0.5-2.3c0.5-0.6,1.4-0.9,2.1-0.8
				c0.8,0.1,1.6,0.6,1.8,1.3c0.1,0.2,0.1,0.4,0.1,0.6s-0.1,0.4-0.2,0.6c-0.2,0.4-0.6,0.6-1,0.7c-0.2,0-0.4,0-0.6-0.2
				c-0.2-0.1-0.3-0.3-0.3-0.5c-0.1-0.2-0.1-0.4,0-0.6c0.1-0.2,0.2-0.4,0.4-0.5l0.1,0.3c-0.3,0.1-0.3,0.5-0.2,0.7
				c0,0.1,0.1,0.3,0.2,0.3c0.1,0.1,0.2,0.1,0.4,0.1c0.3,0,0.6-0.2,0.7-0.5s0.1-0.6,0-0.9s-0.3-0.5-0.6-0.7c-0.3-0.2-0.6-0.3-0.9-0.3
				c-0.6,0-1.3,0.2-1.7,0.7c-0.4,0.5-0.5,1.2-0.3,1.8s0.7,1.1,1.2,1.3c0.6,0.3,1.3,0.4,1.9,0.4c0.7,0,1.3-0.1,2-0.4
				c1.3-0.4,2.5-1.2,3.7-1.9c0.6-0.4,1.2-0.7,1.9-1.1c0.7-0.3,1.4-0.6,2.1-0.8c2.8-0.8,5.8-0.8,8.6-0.5c2.9,0.3,5.7,0.9,8.4,1.8
				c1.4,0.4,2.7,1,4,1.5c1.3,0.6,2.6,1.2,3.9,1.7c1.3,0.6,2.6,1,4,1.4c0.7,0.2,1.4,0.3,2.1,0.4c0.4,0,0.7,0.1,1,0
				c0.3,0,0.7-0.1,1-0.3c0.3-0.1,0.6-0.3,0.9-0.5c0.2-0.2,0.4-0.4,0.5-0.7c0.2-0.6,0.2-1.3-0.1-1.8c-0.3-0.6-1-0.8-1.7-0.8
				s-1.3,0.4-1.6,1L142.3,5z"/>
			<path class="st0" d="M151,5c-0.3-0.7-1.1-1.1-1.8-1.2c-0.4,0-0.8,0-1.1,0.2c-0.4,0.1-0.7,0.4-0.9,0.7c-0.4,0.7-0.5,1.5-0.3,2.3
				c0.1,0.4,0.4,0.7,0.7,1c0.3,0.2,0.6,0.4,1,0.6c0.3,0.1,0.7,0.3,1.1,0.3c0.2,0,0.4,0.1,0.6,0.1c0.2,0,0.4,0,0.6,0
				c0.7,0,1.4-0.2,2.2-0.3c1.4-0.3,2.8-0.8,4.1-1.3s2.6-1.1,3.9-1.7c1.3-0.6,2.6-1,4-1.5c2.7-0.8,5.5-1.4,8.3-1.7s5.7-0.3,8.3,0.5
				c0.7,0.2,1.3,0.4,1.9,0.7c0.6,0.3,1.2,0.6,1.8,1c1.2,0.7,2.5,1.5,3.9,2c0.7,0.2,1.5,0.4,2.2,0.4c0.8,0,1.5-0.2,2.2-0.5
				c0.3-0.2,0.7-0.4,0.9-0.7c0.3-0.3,0.5-0.7,0.6-1c0.2-0.8,0-1.6-0.5-2.3c-0.5-0.6-1.4-0.9-2.1-0.8c-0.8,0.1-1.6,0.6-1.8,1.3
				c-0.1,0.2-0.1,0.4-0.1,0.6s0.1,0.4,0.2,0.6c0.2,0.4,0.6,0.6,1,0.7c0.2,0,0.4,0,0.6-0.2c0.2-0.1,0.3-0.3,0.3-0.5
				c0.1-0.2,0.1-0.4,0-0.6c-0.1-0.2-0.2-0.4-0.4-0.5l-0.1,0.3c0.3,0.1,0.3,0.5,0.2,0.7c0,0.1-0.1,0.3-0.2,0.3
				c-0.1,0.1-0.3,0.1-0.4,0.1c-0.3,0-0.6-0.2-0.7-0.5c-0.1-0.3-0.1-0.6,0-0.9s0.3-0.5,0.6-0.7s0.6-0.3,0.9-0.3
				c0.6,0,1.3,0.2,1.7,0.7s0.5,1.2,0.3,1.8S194,5.8,193.5,6c-0.6,0.3-1.3,0.4-1.9,0.4c-0.7,0-1.3-0.1-2-0.4
				c-1.3-0.4-2.5-1.2-3.7-1.9c-0.6-0.4-1.2-0.7-1.9-1.1c-0.7-0.3-1.3-0.6-2-0.8c-2.8-0.8-5.8-0.9-8.6-0.6c-2.9,0.3-5.7,0.9-8.4,1.8
				c-1.4,0.4-2.7,0.9-4,1.5s-2.6,1.2-3.9,1.7c-1.3,0.5-2.6,1-4,1.4c-0.7,0.2-1.4,0.3-2.1,0.3c-0.4,0-0.7,0.1-1,0
				c-0.3,0-0.7-0.1-1-0.3c-0.3-0.1-0.6-0.3-0.9-0.5c-0.2-0.2-0.4-0.4-0.5-0.7c-0.2-0.6-0.2-1.3,0.2-1.8c0.3-0.5,1-0.8,1.7-0.8
				s1.3,0.4,1.6,1L151,5z"/>
		</g>
		<g>
			<path class="st0" d="M82.1,5.4L0,4.9L82.1,5.4z"/>
			<path class="st0" d="M82.1,5.9c-6.8,0.8-13.7,0.7-20.5,0.3l-5.1-0.3c-1.7-0.1-3.4-0.3-5.1-0.3C48,5.5,44.6,5.5,41.1,5.5
				c-3.4,0-6.8,0.1-10.3,0.1c-3.4,0.1-6.8,0-10.3,0.7c-3.4,0.2-6.8-0.1-10.3-0.4C6.8,5.6,3.4,5.3,0,5.4v-1C3.4,4.5,6.9,4.3,10.3,4
				c3.4-0.2,6.8-0.5,10.3-0.3c3.4,0.8,6.8,0.6,10.3,0.8c3.4,0.1,6.8,0.2,10.3,0.2c3.4,0,6.8,0.1,10.3,0.1c1.7,0,3.4-0.2,5.1-0.3
				l5.1-0.2C68.4,4,75.3,4,82.1,4.9V5.9z"/>
		</g>
		<g>
			<path class="st0" d="M211.2,5.4l82.1-0.5L211.2,5.4z"/>
			<path class="st0" d="M210.8,5.9c6.8,0.8,13.7,0.7,20.5,0.3l5.1-0.3c1.7-0.1,3.4-0.3,5.1-0.3c3.4-0.1,6.8-0.1,10.3-0.1
				c3.4,0,6.8,0.1,10.3,0.1c3.4,0.1,6.8,0,10.3,0.7c3.4,0.2,6.8-0.1,10.3-0.4c3.4-0.3,6.8-0.5,10.3-0.5v-1
				c-3.4,0.1-6.8-0.1-10.3-0.4c-3.4-0.2-6.8-0.5-10.3-0.3c-3.4,0.8-6.8,0.6-10.3,0.8c-3.4,0.1-6.8,0.2-10.3,0.2
				c-3.4,0-6.8,0.1-10.3,0.1c-1.7,0-3.4-0.2-5.1-0.3l-5.1-0.2C224.5,4,217.7,4,210.8,4.9V5.9z"/>
		</g>
	</g>
</g>
</svg>
